# xmcd CD database file
#
# Track frame offsets:
#	150
#	21340
#	43136
#	65374
#	83887
#	105578
#	128190
#	150175
#	170973
#	189811
#	205963
#	228503
#	249961
#	271754
#	292587
#	323932
#
# Disc length: 4520 seconds
#
# Revision: 0
# Processed by: cddbd v1.5.1PL2 Copyright (c) Steve Scherf et al.
# Submitted via: CDex 1.51
#
DISCID=d211a610
DTITLE=Varios - Recopilatorio Kosta Latina
DYEAR=2005
DGENRE=Salsa
TTITLE0=Mia - Eddie Santiago
TTITLE1=Ven Tú - Domenic M
TTITLE2=Cachodea - Fruko y sus Tesos
TTITLE3=Pensar en ti - Protagonistas de la Salsa
TTITLE4=Entre el delirio y la locura - Bad Boys
TTITLE5=Tú con el - Frankie Ruiz
TTITLE6=Quédate conmigo - La Sabrosura
TTITLE7=Es penoso - Orquesta Guayacan
TTITLE8=Sobredosis - Los Titanes
TTITLE9=Arranca en Fa - Sonora Carruseles
TTITLE10=Sonámbulo - Tito Nieves
TTITLE11=Rebelión - Joe Arroyo y la Verdad
TTITLE12=Bastó una mirada - Los Titanes
TTITLE13=Detalles ( Live ) - Oscar de León 
TTITLE14=Cucala - Puerto Rican Master
TTITLE15=Para los Rumberos - Tito Puente
EXTD=YEAR: 2005
EXTT0=
EXTT1=
EXTT2=
EXTT3=
EXTT4=
EXTT5=
EXTT6=
EXTT7=
EXTT8=
EXTT9=
EXTT10=
EXTT11=
EXTT12=
EXTT13=
EXTT14=
EXTT15=
PLAYORDER=
